# xmcd
#
# Track frame offsets:
#	150
#	5430
#	18572
#	29305
#	39160
#	44475
#	57205
#	72732
#	83222
#	92067
#	96880
#	107492
#
# Disc length: 1627 seconds
#
# Revision: 1
# Processed by: cddbd v1.5.1PL0 Copyright (c) Steve Scherf et al.
# Submitted via: CDex 1.50Beta5
#
DISCID=9406590c
DTITLE=frisbee,the - good vibes
DYEAR=2000
DGENRE=Rock
TTITLE0=Strike out
TTITLE1=Have fun time with you
TTITLE2=When she was my girl
TTITLE3=Rockn’roll music vibration
TTITLE4=I hate your life
TTITLE5=My heartbreaker(She has boyfriend)
TTITLE6=I don’t wanna work
TTITLE7=Summer night trippin’
TTITLE8=I don’t wanna do
TTITLE9=I don’t wanna be a shit
TTITLE10=Swing your hips
TTITLE11=God gave the punkrock to us
EXTD=
EXTT0=
EXTT1=
EXTT2=
EXTT3=
EXTT4=
EXTT5=
EXTT6=
EXTT7=
EXTT8=
EXTT9=
EXTT10=
EXTT11=
PLAYORDER=
